<?xml version="1.0" encoding="UTF-8"?><!DOCTYPE svg PUBLIC "-//W3C//DTD SVG 1.1//EN" "http://www.w3.org/Graphics/SVG/1.1/DTD/svg11.dtd"><svg xmlns="http://www.w3.org/2000/svg"><defs><style>.cls-1{fill:#6d6e71;fill-rule:evenodd}</style><style>.cls-1{fill:#6b6f71;fill-rule:evenodd}</style><style>.cls-1{fill:#eaeced;fill-rule:evenodd}</style><style>.cls-1{fill:#2b75b2;fill-rule:evenodd}</style><style>.cls-1{fill:#dd4070;fill-rule:evenodd}</style><style>.cls-1{fill:#26658e;fill-rule:evenodd}</style><style>.cls-1{fill:#6d6e71;fill-rule:evenodd}</style><style>.cls-1{fill:#6d6e71;fill-rule:evenodd}</style><style>.cls-1{fill:#6d6e71;fill-rule:evenodd}</style><style>.cls-1{fill:#c7c9ce;fill-rule:evenodd}</style><style>.cls-1{fill:#1faae2;fill-rule:evenodd;filter:url(#filter)}</style><filter id="filter" x="1446.97" y="190" width="24.97" height="34" filterUnits="userSpaceOnUse"><feFlood result="flood" flood-color="#6d6e71"/><feComposite result="composite" operator="in" in2="SourceGraphic"/><feBlend result="blend" in2="SourceGraphic"/></filter><style>.cls-1{fill:#6d6e71;fill-rule:evenodd}</style><style>.cls-1{fill:#c7c9ce;fill-rule:evenodd}</style><style>.cls-1{fill:#6d6e71;fill-rule:evenodd}</style><style>.cls-1{fill:#1faae2;fill-rule:evenodd}</style></defs><symbol id="blog" viewBox="0 0 18.063 18.281"><path id="icon" class="cls-1" d="M443.828 41.6h-13.457a2.258 2.258 0 0 1-2.243-2.273V25.694a2.365 2.365 0 0 1 2.257-2.38h13.547a2.281 2.281 0 0 1 2.257 2.286v13.714a2.372 2.372 0 0 1-2.361 2.286zm1.233-16a1.141 1.141 0 0 0-1.129-1.143h-13.547a1.233 1.233 0 0 0-1.136 1.237v13.634a1.129 1.129 0 0 0 1.122 1.136h13.457a1.24 1.24 0 0 0 1.233-1.15V25.6zm-3.387 10.286h-9.031a.571.571 0 0 1 0-1.143h9.031a.571.571 0 0 1 0 1.143zm0-3.429h-9.031a.571.571 0 0 1 0-1.143h9.031a.571.571 0 0 1 0 1.143zm0-3.428h-9.031a.572.572 0 0 1 0-1.143h9.031a.572.572 0 0 1 0 1.143z" transform="translate(-428.125 -23.313)"/></symbol><symbol id="card" viewBox="0 0 32 26"><path id="icon" class="cls-1" d="M1035 3808h-24a4 4 0 0 1-4-4v-18a4 4 0 0 1 4-4h24a4 4 0 0 1 4 4v18a4 4 0 0 1-4 4zm2-22a2.006 2.006 0 0 0-2-2h-24a2.006 2.006 0 0 0-2 2v18a2.006 2.006 0 0 0 2 2h24a2.006 2.006 0 0 0 2-2v-18zm-4 9h-4a2.006 2.006 0 0 1-2-2v-4a2.006 2.006 0 0 1 2-2h4a2.006 2.006 0 0 1 2 2v4a2.006 2.006 0 0 1-2 2zm0-5a1 1 0 0 0-1-1h-2a1 1 0 0 0-1 1v2a1 1 0 0 0 1 1h2a1 1 0 0 0 1-1v-2zm-9 13h-12a1 1 0 0 1 0-2h12a1 1 0 0 1 0 2zm0-4h-12a1 1 0 0 1 0-2h12a1 1 0 0 1 0 2z" transform="translate(-1007 -3782)"/></symbol><symbol id="divide" viewBox="0 0 1159 22"><path id="divide" class="cls-1" d="M420 1692v-2s281.535-20 567.089-20c293.831 0 591.911 20 591.911 20v2s-298.15-20-592.012-20C701.468 1672 420 1692 420 1692z" transform="translate(-420 -1670)"/></symbol><symbol id="facebook-c" viewBox="0 0 20.78 21"><path id="facebook" class="cls-1" d="M1362.19 42h-17.58a1.557 1.557 0 0 1-1.61-1.551V22.616a1.614 1.614 0 0 1 1.61-1.616h17.58a1.614 1.614 0 0 1 1.61 1.618v17.834a1.557 1.557 0 0 1-1.61 1.548zm-10.33-16.952a5.957 5.957 0 0 0-2.49.459 2.971 2.971 0 0 0-1.3 1.334 4.681 4.681 0 0 0-.34 2.067v.942h-1.56v2.459h1.56v8.168h3.32v-8.168h2.08l.57-2.459h-2.65v-.883a1.73 1.73 0 0 1 .32-1.211 1.721 1.721 0 0 1 1.14-.336 2.757 2.757 0 0 1 1.41.536l.61-2.314a9.3 9.3 0 0 0-2.67-.591z" transform="translate(-1343 -21)"/></symbol><symbol id="gplus-c" viewBox="0 0 23.41 20.344"><path id="g_" data-name="g+" class="cls-1" d="M1556.34 26.107v3.61h-1.46v-3.61h-3.65v-1.476h3.65v-3.61h1.46v3.61h3.66v1.476h-3.66zm-10.11-3.656a3.794 3.794 0 0 1 2.06 3.449 4.014 4.014 0 0 1-1.81 3.11c-1 .773-1.19 1.1-1.19 1.754 0 .56 1.07 1.515 1.63 1.907a4.227 4.227 0 0 1 2.11 3.985c0 2.215-2.11 4.689-6.02 4.689-3.43 0-6.41-1.659-6.41-3.873 0-2.25 2.73-4.419 6.16-4.419.37 0 .71-.015 1.07-.015a2.393 2.393 0 0 1-.84-1.7 2.588 2.588 0 0 1 .31-1.162c-.19.013-.38-.017-.57-.017a4.5 4.5 0 0 1-4.7-4.524c0-2.413 2.6-4.633 5.37-4.633h6.17l-1.38 1.453h-1.96zm-2.82 11.175c-2.37-.025-4.49 1.435-4.49 3.189 0 1.789 1.71 3.1 4.08 3.1 3.33 0 4.49-1.217 4.49-3.006a2.679 2.679 0 0 0-.08-.633c-.26-1.013-1.18-1.514-2.47-2.4a5.112 5.112 0 0 0-1.53-.249zm2.66-7.7c-.27-2.073-1.85-3.739-3.44-3.786s-2.66 1.54-2.39 3.615 1.79 3.8 3.38 3.842 2.72-1.597 2.45-3.669z" transform="translate(-1536.59 -21)"/></symbol><symbol id="instagram-c" viewBox="0 0 20.82 21"><path id="instagram" class="cls-1" d="M1491.55 42h-15.6a2.61 2.61 0 0 1-2.6-2.625v-15.75a2.61 2.61 0 0 1 2.6-2.625h15.6a2.61 2.61 0 0 1 2.6 2.625v15.75a2.61 2.61 0 0 1-2.6 2.625zm-7.8-14.569a4.01 4.01 0 0 0-3.65 2.362h-.01c-.01.015-.01.03-.02.045-.03.086-.07.175-.1.264-.02.043-.03.085-.05.128a2.634 2.634 0 0 0-.07.278.656.656 0 0 0-.04.131c-.02.1-.03.2-.05.3a.527.527 0 0 1-.02.123c-.01.143-.02.288-.02.435a4.03 4.03 0 1 0 8.06 0c0-.147-.01-.292-.02-.435a.527.527 0 0 1-.02-.123c-.02-.1-.03-.2-.05-.3a.656.656 0 0 0-.04-.131 2.634 2.634 0 0 0-.07-.278c-.02-.043-.03-.085-.05-.128-.03-.089-.07-.177-.1-.264-.01-.015-.01-.03-.02-.045h-.01a4.01 4.01 0 0 0-3.65-2.361zm8.06-3.019a1.047 1.047 0 0 0-1.04-1.05h-2.08a1.047 1.047 0 0 0-1.04 1.05v2.1a1.048 1.048 0 0 0 1.04 1.05h2.08a1.048 1.048 0 0 0 1.04-1.05v-2.1zm0 5.381h-1.92a6.37 6.37 0 1 1-12.28 0h-1.92v8.794a1.048 1.048 0 0 0 1.04 1.05h14.04a1.048 1.048 0 0 0 1.04-1.05v-8.793z" transform="translate(-1473.34 -21)"/></symbol><symbol id="jobs" viewBox="0 0 18.062 21.031"><path id="icon" class="cls-1" d="M547.464 41.6h-12.9a2.605 2.605 0 0 1-2.581-2.629V25.828a2.606 2.606 0 0 1 2.581-2.629h1.936v-1.313h1.737a3.593 3.593 0 0 1 5.556 0h1.738V23.2h1.935a2.6 2.6 0 0 1 2.58 2.629v13.143a2.6 2.6 0 0 1-2.582 2.628zm-3.225-18.4H542.8a1.879 1.879 0 0 0-3.584 0h-1.433v2.629h6.451V23.2zm4.515 2.629a1.3 1.3 0 0 0-1.29-1.314h-1.935v2.628H536.5v-2.628h-1.935a1.3 1.3 0 0 0-1.29 1.314v13.143a1.3 1.3 0 0 0 1.29 1.314h12.9a1.3 1.3 0 0 0 1.29-1.314V25.828zm-3.225 11.829H536.5a.657.657 0 0 1 0-1.314h9.031a.657.657 0 0 1-.002 1.313zm0-3.286H536.5a.657.657 0 0 1 0-1.314h9.031a.657.657 0 0 1-.002 1.314zm0-3.285H536.5a.657.657 0 0 1 0-1.315h9.031a.657.657 0 0 1-.002 1.314z" transform="translate(-531.969 -20.563)"/></symbol><symbol id="language" viewBox="0 0 18.062 18.281"><path id="icon" class="cls-1" d="M748.723 41.6a9.144 9.144 0 1 1 9.03-9.143 9.088 9.088 0 0 1-9.03 9.143zm6.545-4.669a8 8 0 0 0 1.335-3.9h-4.518a22.475 22.475 0 0 1-.283 3.09 19.635 19.635 0 0 1 3.466.81zm-8.777-3.9a20.074 20.074 0 0 0 .291 2.947c.635-.056 1.281-.089 1.941-.089s1.305.033 1.94.089a20.074 20.074 0 0 0 .291-2.947h-4.463zm4.463-1.143a20.067 20.067 0 0 0-.291-2.947c-.635.056-1.281.089-1.94.089s-1.306-.033-1.941-.089a20.067 20.067 0 0 0-.291 2.947h4.463zm3.536 6.03a18.532 18.532 0 0 0-2.909-.671 18.758 18.758 0 0 1-.92 2.959 7.893 7.893 0 0 0 3.829-2.29zm-6.315 2.513c.181.013.363.028.548.028s.366-.015.547-.028a17.173 17.173 0 0 0 1.158-3.335c-.561-.049-1.13-.079-1.705-.079s-1.145.03-1.706.079a17.173 17.173 0 0 0 1.158 3.333zm-1.391-.224a18.758 18.758 0 0 1-.92-2.959 18.532 18.532 0 0 0-2.909.671 7.893 7.893 0 0 0 3.829 2.281zm-1.141-4.086a22.475 22.475 0 0 1-.283-3.09h-4.518a7.993 7.993 0 0 0 1.336 3.9 19.6 19.6 0 0 1 3.465-.812zm-3.465-8.135a7.992 7.992 0 0 0-1.336 3.9h4.518a22.474 22.474 0 0 1 .283-3.09 19.576 19.576 0 0 1-3.465-.813zm.777-.986a18.6 18.6 0 0 0 2.909.671 18.781 18.781 0 0 1 .92-2.96A7.894 7.894 0 0 0 742.955 27zm6.315-2.513c-.181-.013-.362-.028-.547-.028s-.367.015-.548.028a17.19 17.19 0 0 0-1.158 3.335c.561.05 1.13.079 1.706.079s1.144-.03 1.705-.079a17.19 17.19 0 0 0-1.158-3.337zm1.391.224a18.781 18.781 0 0 1 .92 2.96A18.573 18.573 0 0 0 754.49 27a7.894 7.894 0 0 0-3.829-2.29zM751.8 28.8a22.474 22.474 0 0 1 .283 3.09h4.517a8 8 0 0 0-1.335-3.9 19.608 19.608 0 0 1-3.465.81z" transform="translate(-739.688 -23.313)"/></symbol><symbol id="mail" viewBox="0 0 29.34 23.656"><path id="icon" class="cls-1" d="M1543.33 218.271h-22.02a3.652 3.652 0 0 1-3.67-3.638V198.26a3.651 3.651 0 0 1 3.67-3.637h22.02a3.651 3.651 0 0 1 3.67 3.637v16.373a3.652 3.652 0 0 1-3.67 3.638zm-21.1-21.829l10.09 8.7 10.09-8.7h-20.18zm22.94 1.818a1.8 1.8 0 0 0-.59-1.323l-12.26 10.419-12.26-10.419a1.787 1.787 0 0 0-.58 1.323v16.373a1.825 1.825 0 0 0 1.83 1.819h22.02a1.834 1.834 0 0 0 1.84-1.819V198.26z" transform="translate(-1517.66 -194.625)"/></symbol><symbol id="more" viewBox="0 0 24 24"><path id="more" class="cls-1" d="M633.435 3258.57h-8.87v8.86a1.565 1.565 0 1 1-3.13 0v-8.86h-8.87a1.57 1.57 0 0 1 0-3.14h8.87v-8.86a1.565 1.565 0 1 1 3.13 0v8.86h8.87a1.57 1.57 0 0 1 0 3.14z" transform="translate(-611 -3245)"/></symbol><symbol id="nav" viewBox="0 0 24.97 34"><path id="icon" class="cls-1" d="M1459.46 224c-2.07.011-12.48-15.917-12.48-21.247a12.483 12.483 0 1 1 24.96 0c0 5.254-10.44 21.253-12.48 21.247zm0-31.87a10.516 10.516 0 0 0-10.4 10.623c0 4.442 8.67 18.069 10.4 18.06 1.7.009 10.4-13.678 10.4-18.06a10.516 10.516 0 0 0-10.4-10.628zm0 15.935a5.313 5.313 0 1 1 5.2-5.312 5.259 5.259 0 0 1-5.2 5.307zm0-8.5a3.188 3.188 0 1 0 3.12 3.187 3.156 3.156 0 0 0-3.12-3.191z" transform="translate(-1446.97 -190)"/></symbol><symbol id="phone" viewBox="0 0 27.88 28.093"><path id="icon" class="cls-1" d="M1375.41 193.606l-2.58 2.6c-1.42 1.436-.74 3.15 0 5.2a61.385 61.385 0 0 0 8.14 10.714 55.137 55.137 0 0 0 10.58 8.136c1.88.975 3.73 1.436 5.16 0l2.58-2.6a1.721 1.721 0 0 0 0-2.6l-5.16-3.9a1.932 1.932 0 0 0-2.58 0l-1.53 1.538a51.908 51.908 0 0 1-5.57-4.788 43.882 43.882 0 0 1-4.16-4.909l1.58-1.591a1.974 1.974 0 0 0 0-2.6l-3.88-5.2a1.814 1.814 0 0 0-2.58 0m2.51 9.179l2.07-2.088a1.254 1.254 0 0 0 0-1.655l-2.47-3.309a1.04 1.04 0 0 0-1.64 0l-1.64 1.655c-.65.61-.46 2.033-.12 2.718a54.855 54.855 0 0 0 7.75 10.4c3.26 3.57 10.97 8.45 10.97 8.45a3.277 3.277 0 0 0 2.7-.118l1.64-1.655a1.25 1.25 0 0 0 0-1.654l-3.29-2.482a1.227 1.227 0 0 0-1.64 0l-2.02 2.038c-.48-.338-8.08-5.372-12.31-12.3z" transform="translate(-1372 -193.063)"/></symbol><symbol id="share" viewBox="0 0 22.969 23"><path id="link" class="cls-1" d="M503.674 3253.74l-3.2 3.21a4.5 4.5 0 0 1-4.394 1.16l2.673-2.67a.909.909 0 0 0 .12-.1l3.2-3.2a2.267 2.267 0 0 0-3.2-3.21l-3.2 3.21-2.769 2.76a4.541 4.541 0 0 1 1.171-4.37l3.2-3.2a4.53 4.53 0 1 1 6.399 6.41zm-13.169 8.42a1.15 1.15 0 1 1-1.6-1.65l7.611-7.6a1.128 1.128 0 0 1 .84-.37 1.147 1.147 0 0 1 1.151 1.15 1.123 1.123 0 0 1-.332.8v.01zm-2.373-2.5l-3.2 3.2a2.267 2.267 0 0 0 3.2 3.21l3.2-3.21a.39.39 0 0 0 .06-.07l2.709-2.7a4.531 4.531 0 0 1-1.168 4.38l-3.2 3.21a4.534 4.534 0 1 1-6.4-6.42l3.2-3.21a4.527 4.527 0 0 1 4.38-1.16l-2.756 2.75c-.009.01-.018.01-.025.02z" transform="translate(-482.031 -3246)"/></symbol><symbol id="support" viewBox="0 0 17.156 16.469"><path id="icon" class="cls-1" d="M651.923 38.491L647.1 35.2h-4.289v4.389a1.085 1.085 0 0 1-1.073 1.1h-1.608a1.085 1.085 0 0 1-1.073-1.1V35.2a.914.914 0 0 1 .011-.1 3.712 3.712 0 0 1-3.228-3.735c0-2.424 1.921-3.84 4.29-3.84h6.97l4.826-3.291a1.085 1.085 0 0 1 1.073 1.1v12.06a1.085 1.085 0 0 1-1.076 1.097zm-11.8.549a.543.543 0 0 0 .536.549h.541a.543.543 0 0 0 .536-.549V35.2h-1.608v3.84zm0-10.423c-1.1-.036-3.218.319-3.218 2.742s2.152 2.743 3.218 2.743h4.289v-5.485h-4.289zm6.97 4.345v-4.345h-1.608V34.1h1.615v-1.14zm4.826 3.06v-10.7l-3.753 2.743v6.583l3.753 2.743v-1.368z" transform="translate(-635.844 -24.219)"/></symbol><symbol id="twitter-c" viewBox="0 0 24.72 20.344"><path id="twitter" class="cls-1" d="M1424 21.658a5.19 5.19 0 0 1 4.01 1.613 8.154 8.154 0 0 0 2.59-.888l.63-.35a5.147 5.147 0 0 1-1.64 2.414 2.317 2.317 0 0 1-.56.4v.013a9.4 9.4 0 0 0 2.87-.788v.012a8.1 8.1 0 0 1-1.72 2c-.26.212-.53.425-.79.638a15.73 15.73 0 0 1-.23 3.3c-1.27 5.773-4.62 9.692-9.93 11.371a14.961 14.961 0 0 1-7.17.3 18.5 18.5 0 0 1-2.98-.988 11.619 11.619 0 0 1-1.43-.751l-.45-.275a8.169 8.169 0 0 0 1.62.063c.5-.081.99-.06 1.45-.163a10.376 10.376 0 0 0 3.04-1.113 5.691 5.691 0 0 0 1.37-.913 4.235 4.235 0 0 1-1.51-.275 5.12 5.12 0 0 1-3.21-3.29 4.962 4.962 0 0 0 2.26-.1 3.67 3.67 0 0 1-1.66-.676 4.952 4.952 0 0 1-2.38-4.4c.17.083.34.167.52.25a5.309 5.309 0 0 0 1.06.3 1.5 1.5 0 0 0 .69.063h-.02c-.26-.3-.67-.5-.93-.826a5.3 5.3 0 0 1-1.14-4.666 5.928 5.928 0 0 1 .55-1.339.035.035 0 0 0 .02.013 3.182 3.182 0 0 0 .46.538 9.02 9.02 0 0 0 1.51 1.463 14.8 14.8 0 0 0 6.19 3.04 9.537 9.537 0 0 0 2.27.3 4.931 4.931 0 0 1 .03-2.415 5.046 5.046 0 0 1 2.87-3.452 5.937 5.937 0 0 1 1.12-.35z" transform="translate(-1407.19 -21.656)"/></symbol></svg>