<svg xmlns="http://www.w3.org/2000/svg" width="32" height="30.5" viewBox="0 0 32 30.5">
  <metadata><?xpacket begin="﻿" id="W5M0MpCehiHzreSzNTczkc9d"?>
<x:xmpmeta xmlns:x="adobe:ns:meta/" x:xmptk="Adobe XMP Core 5.6-c138 79.159824, 2016/09/14-01:09:01        ">
   <rdf:RDF xmlns:rdf="http://www.w3.org/1999/02/22-rdf-syntax-ns#">
      <rdf:Description rdf:about=""/>
   </rdf:RDF>
</x:xmpmeta>
                                                                                                    
                                                                                                    
                                                                                                    
                                                                                                    
                                                                                                    
                                                                                                    
                                                                                                    
                                                                                                    
                                                                                                    
                                                                                                    
                                                                                                    
                                                                                                    
                                                                                                    
                                                                                                    
                                                                                                    
                                                                                                    
                                                                                                    
                                                                                                    
                                                                                                    
                                                                                                    
                           
<?xpacket end="w"?></metadata>
<defs>
    <style>
      .cls-1 {
        fill: #95e1d3;
        fill-rule: evenodd;
      }
    </style>
  </defs>
  <path id="ALARM" class="cls-1" d="M34.74,18.5A15.72,15.72,0,0,0,26.5,10.26,5.869,5.869,0,0,1,34.74,18.5ZM34.5,25a14.436,14.436,0,0,1-3.962,9.94l2.028,2.028a1.483,1.483,0,1,1-2.1,2.1L28.29,36.887a14.457,14.457,0,0,1-16.566.01L9.561,39.06a1.5,1.5,0,1,1-2.121-2.121l2.012-2.012A14.494,14.494,0,1,1,34.5,25ZM20,13.5A11.5,11.5,0,1,0,31.5,25,11.5,11.5,0,0,0,20,13.5Zm6,13H20A1.5,1.5,0,0,1,18.5,25V17a1.5,1.5,0,0,1,3,0v6.5H26A1.5,1.5,0,0,1,26,26.5ZM5.287,18.706a5.994,5.994,0,0,1,8.419-8.419A16.055,16.055,0,0,0,5.287,18.706Z" transform="translate(-4 -9)"/>
</svg>
