<svg xmlns="http://www.w3.org/2000/svg" width="32" height="32" viewBox="0 0 32 32">
  <metadata><?xpacket begin="﻿" id="W5M0MpCehiHzreSzNTczkc9d"?>
<x:xmpmeta xmlns:x="adobe:ns:meta/" x:xmptk="Adobe XMP Core 5.6-c138 79.159824, 2016/09/14-01:09:01        ">
   <rdf:RDF xmlns:rdf="http://www.w3.org/1999/02/22-rdf-syntax-ns#">
      <rdf:Description rdf:about=""/>
   </rdf:RDF>
</x:xmpmeta>
                                                                                                    
                                                                                                    
                                                                                                    
                                                                                                    
                                                                                                    
                                                                                                    
                                                                                                    
                                                                                                    
                                                                                                    
                                                                                                    
                                                                                                    
                                                                                                    
                                                                                                    
                                                                                                    
                                                                                                    
                                                                                                    
                                                                                                    
                                                                                                    
                                                                                                    
                                                                                                    
                           
<?xpacket end="w"?></metadata>
<defs>
    <style>
      .cls-1 {
        fill: #95e1d3;
        fill-rule: evenodd;
      }
    </style>
  </defs>
  <path id="BOOK_2" data-name="BOOK 2" class="cls-1" d="M35.065,154.889l-14.471,5.988a1.494,1.494,0,0,1-1.187,0L4.935,154.889A1.5,1.5,0,0,1,4,153.5v-23A1.5,1.5,0,0,1,5.5,129a1.48,1.48,0,0,1,.573.114h0l0.013,0L20,134.876l13.911-5.756,0.013,0h0A1.48,1.48,0,0,1,34.5,129a1.5,1.5,0,0,1,1.5,1.5v23A1.5,1.5,0,0,1,35.065,154.889ZM18.5,137.5L7,132.744V152.5l11.5,4.759V137.5ZM33,132.744L21.5,137.5v19.753L33,152.5V132.744Zm-9.121,6.89,5.5-2.5h0a1.5,1.5,0,1,1,1.241,2.731h0l-5.5,2.5h0a1.48,1.48,0,0,1-.621.135A1.5,1.5,0,0,1,23.879,139.634Zm0,5.5h0l5.5-2.5h0a1.5,1.5,0,1,1,1.241,2.731l-5.5,2.5h0A1.5,1.5,0,1,1,23.879,145.134Zm0,5.5h0l5.5-2.5h0a1.5,1.5,0,1,1,1.241,2.731h0l-5.5,2.5h0a1.48,1.48,0,0,1-.621.135A1.5,1.5,0,0,1,23.879,150.634ZM10,137a1.5,1.5,0,0,1,.621.134h0l5.5,2.5h0A1.5,1.5,0,0,1,15.5,142.5a1.481,1.481,0,0,1-.621-0.135h0l-5.5-2.5h0A1.5,1.5,0,0,1,10,137Zm0,5.5a1.5,1.5,0,0,1,.621.134h0l5.5,2.5h0a1.5,1.5,0,1,1-1.241,2.731h0l-5.5-2.5h0A1.5,1.5,0,0,1,10,142.5Zm0,5.5a1.5,1.5,0,0,1,.621.134h0l5.5,2.5h0A1.5,1.5,0,0,1,15.5,153.5a1.481,1.481,0,0,1-.621-0.135h0l-5.5-2.5h0A1.5,1.5,0,0,1,10,148Z" transform="translate(-4 -129)"/>
</svg>
