<svg xmlns="http://www.w3.org/2000/svg" width="31" height="28" viewBox="0 0 31 28">
  <metadata><?xpacket begin="﻿" id="W5M0MpCehiHzreSzNTczkc9d"?>
<x:xmpmeta xmlns:x="adobe:ns:meta/" x:xmptk="Adobe XMP Core 5.6-c138 79.159824, 2016/09/14-01:09:01        ">
   <rdf:RDF xmlns:rdf="http://www.w3.org/1999/02/22-rdf-syntax-ns#">
      <rdf:Description rdf:about=""/>
   </rdf:RDF>
</x:xmpmeta>
                                                                                                    
                                                                                                    
                                                                                                    
                                                                                                    
                                                                                                    
                                                                                                    
                                                                                                    
                                                                                                    
                                                                                                    
                                                                                                    
                                                                                                    
                                                                                                    
                                                                                                    
                                                                                                    
                                                                                                    
                                                                                                    
                                                                                                    
                                                                                                    
                                                                                                    
                                                                                                    
                           
<?xpacket end="w"?></metadata>
<defs>
    <style>
      .cls-1 {
        fill: #95e1d3;
        fill-rule: evenodd;
      }
    </style>
  </defs>
  <path id="COMPUTER_OK" data-name="COMPUTER / OK" class="cls-1" d="M34,116H24.5v2.5l2,2V121h-13v-0.5l2-2V116H6a1.5,1.5,0,0,1-1.5-1.5v-20A1.5,1.5,0,0,1,6,93H34a1.5,1.5,0,0,1,1.5,1.5v20A1.5,1.5,0,0,1,34,116ZM33.5,95H6.5v17h27V95ZM17,102a1.5,1.5,0,0,1,1.061.439h0L19,103.378l2.939-2.939h0a1.5,1.5,0,1,1,2.121,2.121h0l-4,4h0a1.5,1.5,0,0,1-2.121,0h0l-2-2h0A1.5,1.5,0,0,1,17,102Z" transform="translate(-4.5 -93)"/>
</svg>
