<svg xmlns="http://www.w3.org/2000/svg" width="32" height="30.5" viewBox="0 0 32 30.5">
  <metadata><?xpacket begin="﻿" id="W5M0MpCehiHzreSzNTczkc9d"?>
<x:xmpmeta xmlns:x="adobe:ns:meta/" x:xmptk="Adobe XMP Core 5.6-c138 79.159824, 2016/09/14-01:09:01        ">
   <rdf:RDF xmlns:rdf="http://www.w3.org/1999/02/22-rdf-syntax-ns#">
      <rdf:Description rdf:about=""/>
   </rdf:RDF>
</x:xmpmeta>
                                                                                                    
                                                                                                    
                                                                                                    
                                                                                                    
                                                                                                    
                                                                                                    
                                                                                                    
                                                                                                    
                                                                                                    
                                                                                                    
                                                                                                    
                                                                                                    
                                                                                                    
                                                                                                    
                                                                                                    
                                                                                                    
                                                                                                    
                                                                                                    
                                                                                                    
                                                                                                    
                           
<?xpacket end="w"?></metadata>
<defs>
    <style>
      .cls-1 {
        fill: #95e1d3;
        fill-rule: evenodd;
      }
    </style>
  </defs>
  <path id="HOME" class="cls-1" d="M36,184.5a1.5,1.5,0,0,1-2.52,1.094l0,0L20.038,172.159h0L20,172.122h0L6.554,185.569h0a1.5,1.5,0,1,1-2.092-2.149L18.919,168.96A1.5,1.5,0,0,1,20,168.5h0c0.027,0,.053,0,0.079,0h0.012l0.068,0.005h0a1.5,1.5,0,0,1,.933.468h0l5.9,5.9V173.5a1.5,1.5,0,1,1,3,0v4.378l5.6,5.6,0,0A1.492,1.492,0,0,1,36,184.5ZM33,187v10.5a1.5,1.5,0,0,1-1.5,1.5h-3V187h-6v12H8.5A1.5,1.5,0,0,1,7,197.5V187l13-13Zm-15.5,0h-6v6h6v-6Z" transform="translate(-4 -168.5)"/>
</svg>
