<svg xmlns="http://www.w3.org/2000/svg" width="32" height="32" viewBox="0 0 32 32">
  <metadata><?xpacket begin="﻿" id="W5M0MpCehiHzreSzNTczkc9d"?>
<x:xmpmeta xmlns:x="adobe:ns:meta/" x:xmptk="Adobe XMP Core 5.6-c138 79.159824, 2016/09/14-01:09:01        ">
   <rdf:RDF xmlns:rdf="http://www.w3.org/1999/02/22-rdf-syntax-ns#">
      <rdf:Description rdf:about=""/>
   </rdf:RDF>
</x:xmpmeta>
                                                                                                    
                                                                                                    
                                                                                                    
                                                                                                    
                                                                                                    
                                                                                                    
                                                                                                    
                                                                                                    
                                                                                                    
                                                                                                    
                                                                                                    
                                                                                                    
                                                                                                    
                                                                                                    
                                                                                                    
                                                                                                    
                                                                                                    
                                                                                                    
                                                                                                    
                                                                                                    
                           
<?xpacket end="w"?></metadata>
<defs>
    <style>
      .cls-1 {
        fill: #95e1d3;
        fill-rule: evenodd;
      }
    </style>
  </defs>
  <path id="IMAGE" class="cls-1" d="M34.5,242H5.5A1.5,1.5,0,0,1,4,240.5v-29A1.5,1.5,0,0,1,5.5,210h29a1.5,1.5,0,0,1,1.5,1.5v29A1.5,1.5,0,0,1,34.5,242ZM33,213H7v26H33V213Zm-22.5,1.5H16a1.5,1.5,0,0,1,0,3H11.5V222h0a1.5,1.5,0,0,1-3,0h0v-5.5h0v-2h2ZM8.5,230h0a1.5,1.5,0,1,1,3,0h0v4.5H16a1.5,1.5,0,0,1,0,3H8.5v-2h0V230ZM24,214.5h7.5v2h0V222h0a1.5,1.5,0,0,1-3,0h0v-4.5H24A1.5,1.5,0,1,1,24,214.5Zm0,20h4.5V230h0a1.5,1.5,0,1,1,3,0h0v5.5h0v2H24A1.5,1.5,0,0,1,24,234.5Z" transform="translate(-4 -210)"/>
</svg>
