<svg xmlns="http://www.w3.org/2000/svg" width="32" height="32" viewBox="0 0 32 32">
  <metadata><?xpacket begin="﻿" id="W5M0MpCehiHzreSzNTczkc9d"?>
<x:xmpmeta xmlns:x="adobe:ns:meta/" x:xmptk="Adobe XMP Core 5.6-c138 79.159824, 2016/09/14-01:09:01        ">
   <rdf:RDF xmlns:rdf="http://www.w3.org/1999/02/22-rdf-syntax-ns#">
      <rdf:Description rdf:about=""/>
   </rdf:RDF>
</x:xmpmeta>
                                                                                                    
                                                                                                    
                                                                                                    
                                                                                                    
                                                                                                    
                                                                                                    
                                                                                                    
                                                                                                    
                                                                                                    
                                                                                                    
                                                                                                    
                                                                                                    
                                                                                                    
                                                                                                    
                                                                                                    
                                                                                                    
                                                                                                    
                                                                                                    
                                                                                                    
                                                                                                    
                           
<?xpacket end="w"?></metadata>
<defs>
    <style>
      .cls-1 {
        fill: #95e1d3;
        fill-rule: evenodd;
      }
    </style>
  </defs>
  <path id="LINE_GRAPH" data-name="LINE GRAPH" class="cls-1" d="M34.5,82H5.5A1.5,1.5,0,0,1,4,80.5v-29A1.5,1.5,0,0,1,5.5,50h29A1.5,1.5,0,0,1,36,51.5v29A1.5,1.5,0,0,1,34.5,82ZM33,53H7V79H33V53ZM9.215,66.239h0l4-2.5h0a1.5,1.5,0,0,1,1.625.036l0.006-.009,6.631,4.42,7.638-5.391a1.5,1.5,0,1,1,1.764,2.426h0l-8.5,6h0a1.5,1.5,0,0,1-1.74.012L13.982,66.8l-3.136,1.96A1.5,1.5,0,1,1,9.215,66.239Z" transform="translate(-4 -50)"/>
</svg>
